<?xml version="1.0"?>
<svg xmlns="http://www.w3.org/2000/svg" id="Capa_1" enable-background="new 0 0 511.993 511.993" height="512px" viewBox="0 0 511.993 511.993" width="512px" class=""><g><g><path d="m421.399 393.178-330.804 45.661v-408.187c0-12.787 10.366-23.152 23.152-23.152h284.5c12.787 0 23.152 10.366 23.152 23.152z" fill="#f6e266" data-original="#F6E266" class="" style="fill:#667FF6" data-old_color="#f6e266"/><path d="m398.247 7.5h-28.167c12.787 0 23.152 10.366 23.152 23.152v362.526l-302.637 41.773v3.888l330.804-45.661v-362.526c0-12.787-10.366-23.152-23.152-23.152z" fill="#ecbe6b" data-original="#ECBE6B" class="active-path" data-old_color="#ecbe6b" style="fill:#5C61EE"/><path d="m421.399 393.178h-301.235c-16.331 0-29.57 13.239-29.57 29.57v32.182c0 16.331 13.239 29.57 29.57 29.57h278.082c12.787 0 23.152-10.366 23.152-23.152v-68.17z" fill="#fff6f4" data-original="#FFF6F4" class=""/><path d="m393.232 393.178v68.169c0 12.787-10.365 23.152-23.152 23.152h28.167c12.786 0 23.152-10.366 23.152-23.152v-68.169z" fill="#d8e2f1" data-original="#D8E2F1" class=""/><path d="m300.148 504.257-19.624-6.002c-1.041-.318-2.154-.318-3.195 0l-19.624 6.002c-3.511 1.074-7.06-1.552-7.06-5.224v-45.746h56.564v45.746c-.001 3.672-3.55 6.298-7.061 5.224z" fill="#dd636e" data-original="#DD636E" class=""/><g><path d="m291.587 453.288v45.746c0 .884-.21 1.705-.571 2.431l9.132 2.793c3.511 1.074 7.06-1.552 7.06-5.224v-45.746z" fill="#c63d4f" data-original="#C63D4F" class=""/></g><path d="m327.947 280.864h-143.9c-4.63 0-8.384-3.754-8.384-8.384v-30.141c0-4.63 3.754-8.384 8.384-8.384h143.9c4.63 0 8.384 3.754 8.384 8.384v30.141c0 4.631-3.754 8.384-8.384 8.384z" fill="#9dc6fb" data-original="#9DC6FB" class=""/><path d="m327.947 233.955h-24.452c4.63 0 8.384 3.754 8.384 8.384v30.141c0 4.63-3.754 8.384-8.384 8.384h24.452c4.631 0 8.384-3.754 8.384-8.384v-30.141c0-4.631-3.754-8.384-8.384-8.384z" fill="#8993da" data-original="#8993DA" class=""/><g><path d="m398.246 0h-225.999c-4.143 0-7.5 3.357-7.5 7.5s3.357 7.5 7.5 7.5h225.999c8.631 0 15.652 7.021 15.652 15.652v355.025h-293.734c-8.262 0-15.9 2.719-22.07 7.307v-362.332c0-8.631 7.021-15.652 15.652-15.652h28.515c4.143 0 7.5-3.357 7.5-7.5s-3.357-7.5-7.5-7.5h-28.515c-16.901 0-30.652 13.751-30.652 30.652v424.278c0 20.44 16.63 37.07 37.07 37.07h122.98v7.033c0 4.092 1.964 7.988 5.253 10.421 3.252 2.406 7.549 3.185 11.5 1.975l19.028-5.818 19.029 5.818c3.914 1.2 8.211.459 11.5-1.975 3.289-2.433 5.253-6.329 5.253-10.421v-7.033h22.641c4.143 0 7.5-3.357 7.5-7.5s-3.357-7.5-7.5-7.5h-22.641v-16.212h61.396c4.143 0 7.5-3.357 7.5-7.5s-3.357-7.5-7.5-7.5h-240.214c-4.143 0-7.5 3.357-7.5 7.5s3.357 7.5 7.5 7.5h107.256v16.212h-122.98c-12.17 0-22.07-9.9-22.07-22.07v-32.182c0-12.17 9.9-22.07 22.07-22.07h293.734v60.67c0 8.631-7.021 15.652-15.652 15.652h-30.91c-4.143 0-7.5 3.357-7.5 7.5s3.357 7.5 7.5 7.5h30.91c16.901 0 30.652-13.751 30.652-30.652v-430.696c0-16.901-13.751-30.652-30.653-30.652zm-98.538 460.788v35.491l-16.985-5.193c-1.242-.382-2.521-.572-3.798-.572-1.275 0-2.551.19-3.79.57l-16.99 5.195v-35.491z" data-original="#000000" class="" style="fill:#000000" data-old_color="#000000"/><path d="m135.889 416.89c-4.143 0-7.5 3.357-7.5 7.5s3.357 7.5 7.5 7.5h240.216c4.143 0 7.5-3.357 7.5-7.5s-3.357-7.5-7.5-7.5z" data-original="#000000" class="" style="fill:#000000" data-old_color="#000000"/><path d="m213.962 53.774c-.025-.068-.053-.137-.081-.205-1.63-3.963-5.45-6.521-9.734-6.521h-.011c-4.289.005-8.108 2.572-9.732 6.542-.022.056-.045.112-.066.17l-50.135 131.636c-1.475 3.87.469 8.203 4.34 9.678 3.865 1.474 8.203-.467 9.678-4.34l10.646-27.953h70.201l10.542 27.933c1.464 3.88 5.794 5.829 9.665 4.368 3.875-1.462 5.831-5.789 4.368-9.665zm-39.383 94.006 29.548-77.583 29.279 77.583z" data-original="#000000" class="" style="fill:#000000" data-old_color="#000000"/><path d="m279.93 147.451c0 24.359 19.817 44.177 44.177 44.177 11.175 0 21.387-4.18 29.176-11.047v8.423c0 4.143 3.357 7.5 7.5 7.5s7.5-3.357 7.5-7.5v-83.105c0-4.143-3.357-7.5-7.5-7.5s-7.5 3.357-7.5 7.5v8.424c-7.788-6.867-18-11.047-29.176-11.047-24.36-.001-44.177 19.817-44.177 44.175zm73.353 0c0 16.088-13.088 29.177-29.176 29.177s-29.177-13.089-29.177-29.177 13.089-29.176 29.177-29.176 29.176 13.088 29.176 29.176z" data-original="#000000" class="" style="fill:#000000" data-old_color="#000000"/><path d="m316.257 308.719h-120.521c-4.143 0-7.5 3.357-7.5 7.5s3.357 7.5 7.5 7.5h120.521c4.143 0 7.5-3.357 7.5-7.5s-3.357-7.5-7.5-7.5z" data-original="#000000" class="" style="fill:#000000" data-old_color="#000000"/><path d="m316.257 342.615h-120.521c-4.143 0-7.5 3.357-7.5 7.5s3.357 7.5 7.5 7.5h120.521c4.143 0 7.5-3.357 7.5-7.5s-3.357-7.5-7.5-7.5z" data-original="#000000" class="" style="fill:#000000" data-old_color="#000000"/><path d="m370.08 47.69c4.143 0 7.5-3.357 7.5-7.5s-3.357-7.5-7.5-7.5h-29.343c-4.143 0-7.5 3.357-7.5 7.5s3.357 7.5 7.5 7.5z" data-original="#000000" class="" style="fill:#000000" data-old_color="#000000"/><path d="m258.138 233.954c0 4.143 3.357 7.5 7.5 7.5h62.309c.488 0 .885.396.885.885v30.141c0 .488-.396.885-.885.885h-143.9c-.488 0-.885-.396-.885-.885v-30.141c0-.488.396-.885.885-.885h51.604c4.143 0 7.5-3.357 7.5-7.5s-3.357-7.5-7.5-7.5h-51.604c-8.759 0-15.885 7.126-15.885 15.885v30.141c0 8.759 7.126 15.885 15.885 15.885h143.899c8.759 0 15.885-7.126 15.885-15.885v-30.141c0-8.759-7.126-15.885-15.885-15.885h-62.309c-4.142 0-7.499 3.358-7.499 7.5z" data-original="#000000" class="" style="fill:#000000" data-old_color="#000000"/></g></g></g> </svg>
