<?xml version="1.0" encoding="iso-8859-1"?>
<!-- Generator: Adobe Illustrator 19.0.0, SVG Export Plug-In . SVG Version: 6.00 Build 0)  -->
<svg version="1.1" id="Capa_1" xmlns="http://www.w3.org/2000/svg" xmlns:xlink="http://www.w3.org/1999/xlink" x="0px" y="0px"
	 viewBox="0 0 480 480" style="enable-background:new 0 0 480 480;" xml:space="preserve">
<linearGradient id="SVGID_1_" gradientUnits="userSpaceOnUse" x1="-26.875" y1="557.625" x2="-26.875" y2="621.153" gradientTransform="matrix(8 0 0 -8 455.0002 4941)">
	<stop  offset="0" style="stop-color:#006DF0"/>
	<stop  offset="1" style="stop-color:#00E7F0"/>
</linearGradient>
<path style="fill:url(#SVGID_1_);" d="M479.44,85.224c-0.088-0.232-0.184-0.44-0.288-0.664c-0.084-0.233-0.183-0.46-0.296-0.68
	l-48-80C429.41,1.473,426.808,0.001,424,0H56c-2.808,0.001-5.41,1.473-6.856,3.88l-48,80c-0.113,0.22-0.212,0.447-0.296,0.68
	c-0.104,0.216-0.2,0.432-0.288,0.664C0.212,86.109,0.022,87.049,0,88v384c0,4.418,3.582,8,8,8h464c4.418,0,8-3.582,8-8V88
	C479.978,87.049,479.788,86.109,479.44,85.224L479.44,85.224z M457.872,80H424V23.552L457.872,80z M72,80V16h336v64H72z M56,23.552
	V80H22.128L56,23.552z M464,464H16V96h448V464z"/>
<g>
	
		<linearGradient id="SVGID_2_" gradientUnits="userSpaceOnUse" x1="-26.875" y1="557.665" x2="-26.875" y2="621.193" gradientTransform="matrix(8 0 0 -8 455.0002 4941)">
		<stop  offset="0" style="stop-color:#006DF0"/>
		<stop  offset="1" style="stop-color:#00E7F0"/>
	</linearGradient>
	<path style="fill:url(#SVGID_2_);" d="M352,360h-48V259.312l20.288,20.28c3.178,3.07,8.242,2.982,11.312-0.196
		c2.995-3.1,2.995-8.016,0-11.116l-33.936-33.928c-3.12-3.128-8.186-3.135-11.314-0.014c-0.005,0.005-0.01,0.01-0.014,0.014
		L256.4,268.28c-3.07,3.178-2.982,8.242,0.196,11.312c3.1,2.995,8.016,2.995,11.116,0L288,259.312V360h-96V259.312l20.288,20.28
		c3.07,3.178,8.134,3.266,11.312,0.196c3.178-3.07,3.266-8.134,0.196-11.312c-0.064-0.067-0.13-0.132-0.196-0.196l-33.936-33.928
		c-3.12-3.128-8.186-3.135-11.314-0.014c-0.005,0.005-0.01,0.01-0.014,0.014L144.4,268.28c-3.178,3.069-3.266,8.134-0.196,11.312
		c3.069,3.178,8.134,3.266,11.312,0.196c0.067-0.064,0.132-0.13,0.196-0.196L176,259.312V360h-48c-4.418,0-8,3.582-8,8s3.582,8,8,8
		h224c4.418,0,8-3.582,8-8S356.418,360,352,360L352,360z"/>
	
		<linearGradient id="SVGID_3_" gradientUnits="userSpaceOnUse" x1="-26.875" y1="557.665" x2="-26.875" y2="621.193" gradientTransform="matrix(8 0 0 -8 455.0002 4941)">
		<stop  offset="0" style="stop-color:#006DF0"/>
		<stop  offset="1" style="stop-color:#00E7F0"/>
	</linearGradient>
	<path style="fill:url(#SVGID_3_);" d="M192,176h96c13.255,0,24-10.745,24-24s-10.745-24-24-24h-96c-13.255,0-24,10.745-24,24
		S178.745,176,192,176z M192,144h96c4.418,0,8,3.582,8,8s-3.582,8-8,8h-96c-4.418,0-8-3.582-8-8S187.582,144,192,144z"/>
	
		<linearGradient id="SVGID_4_" gradientUnits="userSpaceOnUse" x1="-48.875" y1="557.665" x2="-48.875" y2="621.193" gradientTransform="matrix(8 0 0 -8 455.0002 4941)">
		<stop  offset="0" style="stop-color:#006DF0"/>
		<stop  offset="1" style="stop-color:#00E7F0"/>
	</linearGradient>
	<path style="fill:url(#SVGID_4_);" d="M56,440h16v16H56V440z"/>
	
		<linearGradient id="SVGID_5_" gradientUnits="userSpaceOnUse" x1="-52.875" y1="557.665" x2="-52.875" y2="621.193" gradientTransform="matrix(8 0 0 -8 455.0002 4941)">
		<stop  offset="0" style="stop-color:#006DF0"/>
		<stop  offset="1" style="stop-color:#00E7F0"/>
	</linearGradient>
	<path style="fill:url(#SVGID_5_);" d="M24,440h16v16H24V440z"/>
	
		<linearGradient id="SVGID_6_" gradientUnits="userSpaceOnUse" x1="-44.875" y1="557.665" x2="-44.875" y2="621.193" gradientTransform="matrix(8 0 0 -8 455.0002 4941)">
		<stop  offset="0" style="stop-color:#006DF0"/>
		<stop  offset="1" style="stop-color:#00E7F0"/>
	</linearGradient>
	<path style="fill:url(#SVGID_6_);" d="M88,440h16v16H88V440z"/>
	
		<linearGradient id="SVGID_7_" gradientUnits="userSpaceOnUse" x1="-40.875" y1="557.665" x2="-40.875" y2="621.193" gradientTransform="matrix(8 0 0 -8 455.0002 4941)">
		<stop  offset="0" style="stop-color:#006DF0"/>
		<stop  offset="1" style="stop-color:#00E7F0"/>
	</linearGradient>
	<path style="fill:url(#SVGID_7_);" d="M120,440h16v16h-16V440z"/>
</g>
<linearGradient id="SVGCleanerId_0_2_" gradientUnits="userSpaceOnUse" x1="-36.875" y1="557.665" x2="-36.875" y2="621.193" gradientTransform="matrix(8 0 0 -8 455.0002 4941)">
	<stop  offset="0" style="stop-color:#006DF0"/>
	<stop  offset="1" style="stop-color:#00E7F0"/>
</linearGradient>
<path id="SVGCleanerId_0" style="fill:url(#SVGCleanerId_0_2_);" d="M152,440h16v16h-16V440z"/>
<g>
	
		<linearGradient id="SVGCleanerId_0_3_" gradientUnits="userSpaceOnUse" x1="-36.875" y1="557.665" x2="-36.875" y2="621.193" gradientTransform="matrix(8 0 0 -8 455.0002 4941)">
		<stop  offset="0" style="stop-color:#006DF0"/>
		<stop  offset="1" style="stop-color:#00E7F0"/>
	</linearGradient>
	<path id="SVGCleanerId_0_1_" style="fill:url(#SVGCleanerId_0_3_);" d="M152,440h16v16h-16V440z"/>
</g>
<g>
	
		<linearGradient id="SVGID_8_" gradientUnits="userSpaceOnUse" x1="-32.875" y1="557.665" x2="-32.875" y2="621.193" gradientTransform="matrix(8 0 0 -8 455.0002 4941)">
		<stop  offset="0" style="stop-color:#006DF0"/>
		<stop  offset="1" style="stop-color:#00E7F0"/>
	</linearGradient>
	<path style="fill:url(#SVGID_8_);" d="M184,440h16v16h-16V440z"/>
	
		<linearGradient id="SVGID_9_" gradientUnits="userSpaceOnUse" x1="-28.875" y1="557.665" x2="-28.875" y2="621.193" gradientTransform="matrix(8 0 0 -8 455.0002 4941)">
		<stop  offset="0" style="stop-color:#006DF0"/>
		<stop  offset="1" style="stop-color:#00E7F0"/>
	</linearGradient>
	<path style="fill:url(#SVGID_9_);" d="M216,440h16v16h-16V440z"/>
	
		<linearGradient id="SVGID_10_" gradientUnits="userSpaceOnUse" x1="-24.875" y1="557.665" x2="-24.875" y2="621.193" gradientTransform="matrix(8 0 0 -8 455.0002 4941)">
		<stop  offset="0" style="stop-color:#006DF0"/>
		<stop  offset="1" style="stop-color:#00E7F0"/>
	</linearGradient>
	<path style="fill:url(#SVGID_10_);" d="M248,440h16v16h-16V440z"/>
	
		<linearGradient id="SVGID_11_" gradientUnits="userSpaceOnUse" x1="-20.875" y1="557.665" x2="-20.875" y2="621.193" gradientTransform="matrix(8 0 0 -8 455.0002 4941)">
		<stop  offset="0" style="stop-color:#006DF0"/>
		<stop  offset="1" style="stop-color:#00E7F0"/>
	</linearGradient>
	<path style="fill:url(#SVGID_11_);" d="M280,440h16v16h-16V440z"/>
	
		<linearGradient id="SVGID_12_" gradientUnits="userSpaceOnUse" x1="-16.875" y1="557.665" x2="-16.875" y2="621.193" gradientTransform="matrix(8 0 0 -8 455.0002 4941)">
		<stop  offset="0" style="stop-color:#006DF0"/>
		<stop  offset="1" style="stop-color:#00E7F0"/>
	</linearGradient>
	<path style="fill:url(#SVGID_12_);" d="M312,440h16v16h-16V440z"/>
	
		<linearGradient id="SVGID_13_" gradientUnits="userSpaceOnUse" x1="-12.875" y1="557.665" x2="-12.875" y2="621.193" gradientTransform="matrix(8 0 0 -8 455.0002 4941)">
		<stop  offset="0" style="stop-color:#006DF0"/>
		<stop  offset="1" style="stop-color:#00E7F0"/>
	</linearGradient>
	<path style="fill:url(#SVGID_13_);" d="M344,440h16v16h-16V440z"/>
	
		<linearGradient id="SVGID_14_" gradientUnits="userSpaceOnUse" x1="-8.875" y1="557.665" x2="-8.875" y2="621.193" gradientTransform="matrix(8 0 0 -8 455.0002 4941)">
		<stop  offset="0" style="stop-color:#006DF0"/>
		<stop  offset="1" style="stop-color:#00E7F0"/>
	</linearGradient>
	<path style="fill:url(#SVGID_14_);" d="M376,440h16v16h-16V440z"/>
	
		<linearGradient id="SVGID_15_" gradientUnits="userSpaceOnUse" x1="-4.875" y1="557.665" x2="-4.875" y2="621.193" gradientTransform="matrix(8 0 0 -8 455.0002 4941)">
		<stop  offset="0" style="stop-color:#006DF0"/>
		<stop  offset="1" style="stop-color:#00E7F0"/>
	</linearGradient>
	<path style="fill:url(#SVGID_15_);" d="M408,440h16v16h-16V440z"/>
	
		<linearGradient id="SVGID_16_" gradientUnits="userSpaceOnUse" x1="-0.875" y1="557.665" x2="-0.875" y2="621.193" gradientTransform="matrix(8 0 0 -8 455.0002 4941)">
		<stop  offset="0" style="stop-color:#006DF0"/>
		<stop  offset="1" style="stop-color:#00E7F0"/>
	</linearGradient>
	<path style="fill:url(#SVGID_16_);" d="M440,440h16v16h-16V440z"/>
</g>
<g>
</g>
<g>
</g>
<g>
</g>
<g>
</g>
<g>
</g>
<g>
</g>
<g>
</g>
<g>
</g>
<g>
</g>
<g>
</g>
<g>
</g>
<g>
</g>
<g>
</g>
<g>
</g>
<g>
</g>
</svg>
